<svg width="554" height="626" viewBox="0 0 554 626" fill="none" xmlns="http://www.w3.org/2000/svg">
<path d="M135.65 1.56122C120.25 3.72534 94.5846 12.2155 79.6985 20.2062C54.375 33.6904 34.5269 53.3342 22.7207 76.9733C12.6256 96.7836 9.71678 108.104 8.69016 130.411C6.97911 164.039 15.8765 189.675 36.0669 210.484C42.2266 216.81 49.5841 223.303 52.4929 224.967L57.7971 227.964L51.8085 218.309C44.2799 205.99 40.6867 192.172 40.6867 176.191C40.6867 136.404 68.4056 102.777 110.155 92.2888C151.733 81.801 204.434 92.7882 241.221 119.59C254.738 129.579 264.149 140.066 274.929 157.713C282.971 170.531 293.237 196.667 291.355 199.497C290.841 200.163 286.393 198.665 281.431 196.001C262.267 185.68 238.655 180.353 188.521 175.525C156.011 172.196 146.771 170.364 134.623 164.371C123.501 159.044 123.843 158.378 129.148 175.359C135.821 196.168 152.076 218.309 168.844 229.462C173.635 232.625 177.57 235.955 177.57 236.953C177.399 237.786 171.924 242.947 165.08 248.107C158.235 253.268 146.258 262.59 138.216 268.75C96.6378 300.712 62.0747 317.193 17.5876 325.85L2.18819 328.846L0.648247 342.83C-1.40501 360.476 1.67487 401.595 6.29469 421.072C23.234 491.157 66.6945 550.421 128.463 587.045C162.171 607.355 203.749 621.339 240.879 625.001L252.001 626L252.172 593.871C252.343 564.738 252.685 559.91 256.62 545.594C259.016 536.937 264.833 521.289 269.624 510.967L278.18 492.322L265.518 486.329C237.286 472.845 215.555 444.711 211.107 415.745C210.422 411.75 209.567 406.423 209.053 403.759C207.685 396.934 211.278 398.265 213.502 405.424C221.715 430.395 243.788 457.197 263.978 467.019C277.153 473.511 286.222 476.008 323.865 483.333C359.283 490.158 368.694 492.822 379.473 498.815C396.755 508.304 407.877 520.956 420.881 546.593C431.489 567.235 446.033 588.71 452.535 593.371C458.695 597.866 471.014 604.026 473.752 604.026C474.95 604.026 474.265 602.361 472.212 600.197C465.71 593.371 462.801 584.215 462.801 569.732C462.801 551.254 464.341 549.922 470.843 562.574C474.094 568.9 477.687 573.561 479.912 574.227C483.334 575.392 483.505 575.226 481.794 570.565C477.859 559.411 484.189 539.767 496.167 526.616C499.076 523.286 505.92 517.127 511.566 513.132C517.897 508.304 521.832 503.976 522.517 501.146C523.03 498.648 523.886 495.319 524.399 493.821C524.741 491.99 528.505 489.992 533.296 488.494C544.418 485.331 551.605 481.502 552.973 478.339C553.487 476.841 554 472.679 554 469.349C554 464.189 551.605 459.694 542.536 446.543C513.277 404.425 508.657 397.433 500.958 381.785C490.349 360.976 487.783 350.488 491.547 344.994C493.258 342.497 495.824 340.999 498.733 340.999C502.84 340.999 503.011 340.666 501.984 334.174C499.589 320.023 485.387 292.722 469.132 271.08C457.326 255.265 437.136 235.455 421.394 224.302L407.706 214.646L403.599 199.997C391.28 155.382 365.956 110.601 333.275 75.9745C296.488 36.8534 242.761 8.05365 193.996 1.56122C178.768 -0.602905 150.536 -0.436462 135.65 1.56122Z" fill="#D4AF37"/>
</svg>
