<svg width="2187" height="1345" viewBox="0 0 2187 1345" fill="none" xmlns="http://www.w3.org/2000/svg">
<path d="M609.824 925.914C601.454 933.687 588.899 941.758 572.158 950.128C556.016 957.9 537.482 965.075 516.557 971.651C496.229 978.228 475.304 983.31 453.781 986.897C432.258 991.082 411.93 993.174 392.798 993.174C322.848 993.174 262.165 979.423 210.748 951.922C159.331 923.822 119.573 885.857 91.4736 838.028C63.3739 790.199 49.324 735.793 49.324 674.81C49.324 617.415 58.292 567.194 76.228 524.148C94.164 480.504 118.677 444.034 149.766 414.738C180.855 384.845 216.428 362.425 256.485 347.478C297.14 332.532 339.887 325.058 384.727 325.058C424.784 325.058 461.553 329.841 495.034 339.407C528.514 348.375 557.511 359.735 582.023 373.486L547.048 471.237C535.689 464.66 521.041 458.383 503.105 452.404C485.767 445.827 467.532 440.746 448.4 437.158C429.866 433.571 413.126 431.778 398.179 431.778C348.556 431.778 305.809 441.044 269.937 459.578C234.663 478.112 207.161 504.717 187.431 539.394C168.299 574.07 158.734 616.219 158.734 665.842C158.734 710.084 168.598 748.946 188.328 782.426C208.655 815.309 236.456 841.017 271.73 859.551C307.602 878.085 348.855 887.352 395.489 887.352C415.816 887.352 435.247 885.558 453.781 881.971C472.913 878.384 489.055 872.704 502.208 864.932V758.213H380.243V655.978H609.824V925.914ZM1198.38 986L1488.04 306.226H1494.32L1783.99 986H1661.13L1459.35 472.134L1535.57 421.016L1303.3 986H1198.38ZM1381.32 743.864H1602.83L1639.6 834.441H1349.04L1381.32 743.864ZM1706.51 332.233H2144.14V434.468H1975.55V986H1869.72V434.468H1706.51V332.233Z" fill="#D4AF37"/>
<path d="M793.65 334.561C778.25 336.725 752.585 345.216 737.699 353.206C712.375 366.69 692.527 386.334 680.721 409.973C670.626 429.784 667.717 441.104 666.69 463.411C664.979 497.039 673.877 522.675 694.067 543.484C700.227 549.81 707.584 556.303 710.493 557.967L715.797 560.964L709.808 551.309C702.28 538.99 698.687 525.172 698.687 509.191C698.687 469.404 726.406 435.777 768.155 425.289C809.733 414.801 862.434 425.788 899.221 452.59C912.738 462.579 922.149 473.066 932.929 490.713C940.971 503.531 951.237 529.667 949.355 532.497C948.841 533.163 944.393 531.665 939.431 529.001C920.267 518.68 896.655 513.353 846.521 508.525C814.011 505.196 804.771 503.364 792.623 497.371C781.501 492.044 781.843 491.378 787.148 508.359C793.821 529.168 810.076 551.309 826.844 562.462C831.635 565.625 835.57 568.955 835.57 569.953C835.399 570.786 829.924 575.947 823.08 581.107C816.235 586.268 804.258 595.59 796.216 601.75C754.638 633.712 720.075 650.193 675.588 658.85L660.188 661.846L658.648 675.83C656.595 693.476 659.675 734.595 664.295 754.072C681.234 824.157 724.695 883.421 786.463 920.045C820.171 940.355 861.749 954.339 898.879 958.001L910.001 959L910.172 926.871C910.343 897.738 910.685 892.91 914.62 878.594C917.016 869.937 922.833 854.289 927.624 843.967L936.18 825.322L923.518 819.329C895.286 805.845 873.555 777.711 869.107 748.745C868.422 744.75 867.567 739.423 867.053 736.759C865.685 729.934 869.278 731.265 871.502 738.424C879.715 763.395 901.788 790.197 921.978 800.019C935.153 806.511 944.222 809.008 981.865 816.333C1017.28 823.158 1026.69 825.822 1037.47 831.815C1054.76 841.304 1065.88 853.956 1078.88 879.593C1089.49 900.235 1104.03 921.71 1110.54 926.371C1116.69 930.866 1129.01 937.026 1131.75 937.026C1132.95 937.026 1132.27 935.361 1130.21 933.197C1123.71 926.371 1120.8 917.215 1120.8 902.732C1120.8 884.254 1122.34 882.922 1128.84 895.574C1132.09 901.9 1135.69 906.561 1137.91 907.227C1141.33 908.392 1141.51 908.226 1139.79 903.565C1135.86 892.411 1142.19 872.767 1154.17 859.616C1157.08 856.286 1163.92 850.127 1169.57 846.132C1175.9 841.304 1179.83 836.976 1180.52 834.146C1181.03 831.648 1181.89 828.319 1182.4 826.821C1182.74 824.99 1186.51 822.992 1191.3 821.494C1202.42 818.331 1209.6 814.502 1210.97 811.339C1211.49 809.841 1212 805.679 1212 802.349C1212 797.189 1209.6 792.694 1200.54 779.543C1171.28 737.425 1166.66 730.433 1158.96 714.785C1148.35 693.976 1145.78 683.488 1149.55 677.994C1151.26 675.497 1153.82 673.999 1156.73 673.999C1160.84 673.999 1161.01 673.666 1159.98 667.174C1157.59 653.023 1143.39 625.722 1127.13 604.08C1115.33 588.265 1095.14 568.455 1079.39 557.302L1065.71 547.646L1061.6 532.997C1049.28 488.382 1023.96 443.601 991.275 408.974C954.488 369.853 900.761 341.054 851.996 334.561C836.768 332.397 808.536 332.564 793.65 334.561Z" fill="#D4AF37"/>
<path d="M846.448 1214V1107.6H883.646C891.058 1107.6 897.171 1108.88 901.985 1111.45C906.799 1113.97 910.384 1117.39 912.739 1121.68C915.094 1125.94 916.272 1130.67 916.272 1135.86C916.272 1140.44 915.458 1144.21 913.83 1147.19C912.237 1150.17 910.124 1152.52 907.492 1154.25C904.894 1155.99 902.072 1157.27 899.024 1158.1V1159.14C902.279 1159.35 905.552 1160.49 908.843 1162.57C912.133 1164.65 914.886 1167.62 917.103 1171.5C919.32 1175.38 920.428 1180.13 920.428 1185.74C920.428 1191.07 919.216 1195.87 916.791 1200.13C914.367 1204.39 910.54 1207.77 905.31 1210.26C900.08 1212.75 893.274 1214 884.893 1214H846.448ZM859.332 1202.57H884.893C893.309 1202.57 899.283 1200.94 902.816 1197.69C906.384 1194.4 908.167 1190.41 908.167 1185.74C908.167 1182.14 907.249 1178.81 905.414 1175.76C903.578 1172.68 900.963 1170.22 897.569 1168.39C894.175 1166.52 890.157 1165.58 885.516 1165.58H859.332V1202.57ZM859.332 1154.36H883.23C887.109 1154.36 890.607 1153.6 893.724 1152.07C896.876 1150.55 899.37 1148.4 901.206 1145.63C903.076 1142.86 904.011 1139.6 904.011 1135.86C904.011 1131.19 902.383 1127.22 899.128 1123.97C895.872 1120.68 890.711 1119.03 883.646 1119.03H859.332V1154.36ZM938.648 1214H925.14L964.208 1107.6H977.508L1016.58 1214H1003.07L971.274 1124.43H970.443L938.648 1214ZM943.635 1172.44H998.081V1183.87H943.635V1172.44ZM1025.83 1214V1107.6H1061.79C1070.1 1107.6 1076.92 1109.02 1082.25 1111.86C1087.59 1114.67 1091.54 1118.53 1094.1 1123.45C1096.66 1128.36 1097.94 1133.96 1097.94 1140.23C1097.94 1146.5 1096.66 1152.06 1094.1 1156.9C1091.54 1161.75 1087.61 1165.56 1082.31 1168.33C1077.01 1171.07 1070.24 1172.44 1061.99 1172.44H1032.9V1160.8H1061.58C1067.26 1160.8 1071.83 1159.97 1075.29 1158.31C1078.79 1156.64 1081.32 1154.29 1082.88 1151.24C1084.47 1148.16 1085.27 1144.49 1085.27 1140.23C1085.27 1135.97 1084.47 1132.24 1082.88 1129.06C1081.29 1125.87 1078.74 1123.41 1075.24 1121.68C1071.74 1119.91 1067.12 1119.03 1061.37 1119.03H1038.72V1214H1025.83ZM1075.92 1166.2L1102.1 1214H1087.14L1061.37 1166.2H1075.92ZM1112.1 1214V1107.6H1149.3C1156.71 1107.6 1162.82 1108.88 1167.64 1111.45C1172.45 1113.97 1176.04 1117.39 1178.39 1121.68C1180.75 1125.94 1181.92 1130.67 1181.92 1135.86C1181.92 1140.44 1181.11 1144.21 1179.48 1147.19C1177.89 1150.17 1175.78 1152.52 1173.14 1154.25C1170.55 1155.99 1167.72 1157.27 1164.67 1158.1V1159.14C1167.93 1159.35 1171.2 1160.49 1174.49 1162.57C1177.78 1164.65 1180.54 1167.62 1182.75 1171.5C1184.97 1175.38 1186.08 1180.13 1186.08 1185.74C1186.08 1191.07 1184.87 1195.87 1182.44 1200.13C1180.02 1204.39 1176.19 1207.77 1170.96 1210.26C1165.73 1212.75 1158.93 1214 1150.54 1214H1112.1ZM1124.98 1202.57H1150.54C1158.96 1202.57 1164.93 1200.94 1168.47 1197.69C1172.03 1194.4 1173.82 1190.41 1173.82 1185.74C1173.82 1182.14 1172.9 1178.81 1171.07 1175.76C1169.23 1172.68 1166.61 1170.22 1163.22 1168.39C1159.83 1166.52 1155.81 1165.58 1151.17 1165.58H1124.98V1202.57ZM1124.98 1154.36H1148.88C1152.76 1154.36 1156.26 1153.6 1159.38 1152.07C1162.53 1150.55 1165.02 1148.4 1166.86 1145.63C1168.73 1142.86 1169.66 1139.6 1169.66 1135.86C1169.66 1131.19 1168.03 1127.22 1164.78 1123.97C1161.52 1120.68 1156.36 1119.03 1149.3 1119.03H1124.98V1154.36ZM1199.94 1214V1107.6H1264.15V1119.03H1212.82V1154.98H1260.82V1166.41H1212.82V1202.57H1264.98V1214H1199.94ZM1280.06 1214V1107.6H1316.01C1324.32 1107.6 1331.14 1109.02 1336.48 1111.86C1341.81 1114.67 1345.76 1118.53 1348.32 1123.45C1350.88 1128.36 1352.17 1133.96 1352.17 1140.23C1352.17 1146.5 1350.88 1152.06 1348.32 1156.9C1345.76 1161.75 1341.83 1165.56 1336.53 1168.33C1331.23 1171.07 1324.46 1172.44 1316.22 1172.44H1287.12V1160.8H1315.8C1321.48 1160.8 1326.05 1159.97 1329.52 1158.31C1333.01 1156.64 1335.54 1154.29 1337.1 1151.24C1338.69 1148.16 1339.49 1144.49 1339.49 1140.23C1339.49 1135.97 1338.69 1132.24 1337.1 1129.06C1335.51 1125.87 1332.96 1123.41 1329.46 1121.68C1325.97 1119.91 1321.34 1119.03 1315.59 1119.03H1292.94V1214H1280.06ZM1330.14 1166.2L1356.32 1214H1341.36L1315.59 1166.2H1330.14Z" fill="#D4AF37"/>
</svg>
